<svg version="1.2" xmlns="http://www.w3.org/2000/svg" viewBox="0 0 302 300" width="302" height="300">
	<title>750-sportsbook-logo-background-svg</title>
	<style>
		.s0 { fill: #ffffff } 
		.s1 { fill: #db2c3e } 
	</style>
	<g id="Layer">
		<g id="Layer">
			<g id="Layer">
				<g id="Layer">
					<path id="Layer" fill-rule="evenodd" class="s0" d="m429.9 105.9q-0.2 0.3-0.2 0.6v28.7q0 0.4 0.2 0.6v1.2c0 0.6 0.6 1.1 1.2 1.1h21.2c0.7 0 1.2-0.5 1.2-1.1v-63.7q0-1 0.1-2c0-1.1-1.3-1.5-1.9-0.7-3.3 4.7-6.8 10.4-10.7 17.2-3.5 6-7.1 12.2-11.1 18.1z"/>
					<path id="Layer" fill-rule="evenodd" class="s0" d="m649.6 81.4v53.8c0 0.7-0.5 1.2-1.1 1.2h-20.5c-0.7 0-1.2-0.5-1.2-1.2v-6.5c0-0.9-0.9-1.4-1.6-0.9-3.4 2.4-7 4.4-10.8 5.9q-0.1 0.1-0.2 0.1-4 1.7-8.3 2.7-0.1 0-0.2 0.1-1.8 0.4-3.5 0.7-0.2 0-0.5 0.1-0.5 0-1 0.1-0.3 0.1-0.6 0.1-0.5 0.1-0.9 0.1-3.5 0.4-7.1 0.5 0 0 0 0 0 0-0.1 0 0 0 0 0c-17.7 0-32.4-6-45.1-18.2-6.4-6.2-11.6-13.3-16.4-20.8-0.6-0.8-1.9-0.4-1.9 0.6v37.2c0 0.6-0.5 1.2-1.2 1.2h-21.2c-0.6 0-1.2-0.6-1.2-1.2v-63.7c0-13.3-10.7-24.8-24.7-25.4q0 0 0 0c-0.4 0-0.7 0-1.1 0q0 0-0.1 0c-19.8 0-29.2 13.6-42.8 37.1q-1.6 2.7-3.2 5.4-0.1 0.1-0.1 0.2-1.6 2.8-3.3 5.5c-5.3 8.5-11.1 16.9-18.4 23.9-12.7 12.2-27.4 18.2-45.1 18.2q-3.6 0-7.1-0.5c-28.3-3.5-49.7-27.7-49.7-56.3 0-28.6 21.4-52.8 49.7-56.3q3.5-0.4 7.1-0.4 3.5 0 7 0.4c22.5 2.8 40.6 18.6 47.1 39.3 0.3 0.8 1.4 1 1.9 0.2 2.3-3.8 4.7-7.5 7.2-11.2q0.2-0.2 0.2-0.6v-27c0-0.6 0.5-1.1 1.2-1.1h20.5c0.6 0 1.1 0.5 1.1 1.1v3.8c0 0.8 0.9 1.3 1.5 0.9 7.1-3.7 15.4-5.9 25.2-5.9 29.9 0 45.2 20.5 57.6 41.2q2.4 4 4.7 7.9c13.1 22.5 24.5 42 50.6 42v-0.1q0.1 0.1 0.1 0 2.8 0 5.7-0.4c15.9-2.6 27.8-15.7 28.9-31.4 0 0 0-4.7 0-4.7q0-0.1 0-0.1c-1.1-15.5-12.8-28.5-28.5-31.3l-0.4-0.1q-2.9-0.4-5.7-0.4-2.9 0-5.7 0.4c-16.8 2.8-29 17.1-29 33.8q0 2.5 0.3 4.8c0.2 1.1-1.2 1.6-1.9 0.7-5.6-8.3-10.7-17.9-16.4-27.2-0.2-0.3-0.2-0.7-0.1-1 8-17.9 24.9-31.1 45.6-33.6q3.6-0.4 7.2-0.4 0 0 0 0 0 0 0 0 3.6 0 7.1 0.4 0.5 0.1 0.9 0.1 0.3 0.1 0.6 0.1 0.5 0.1 1 0.2 0.2 0 0.4 0 1.9 0.4 3.7 0.8 0 0 0 0c7.1 1.7 13.5 4.6 19.3 8.6 0.7 0.5 1.6 0 1.6-0.9v-8.2c0-0.6 0.5-1.1 1.1-1.1h20.6c0.6 0 1.1 0.5 1.1 1.1 0 0 0 51.9 0 51.9q0.1 1.9 0.1 3.7zm-283.4 34.2q2.8 0 5.6-0.4c16.5-2.8 28.6-17.1 28.6-33.8 0-16.5-11.8-30.8-28.1-33.7l-0.5-0.1q-2.8-0.4-5.6-0.4-2.9 0-5.7 0.4c-16.5 2.8-28.6 17.1-28.6 33.8 0 16.5 11.9 30.8 28.2 33.7l0.4 0.1q2.8 0.4 5.7 0.4z"/>
				</g>
			</g>
			<g id="Layer">
				<g id="Layer">
					<g id="Layer">
						<g id="Layer">
							<path id="Layer" fill-rule="evenodd" class="s1" d="m624.2 252.4v21c0 0.7-0.5 1.2-1.2 1.2h-26.9c-10.3 0-18.7-8.3-18.7-18.4v-36c0-1.1-1.4-1.5-2-0.5q-1.4 2.4-2.9 4.9c-13.6 23.4-27.1 50-63.6 50-31 0-45.5-19.5-57.6-39.9-0.5-0.7-1.6-0.6-1.9 0.2-7 20.7-25.5 36.5-48.5 39.3q-3.6 0.4-7.3 0.4 0 0 0 0 0 0 0 0-3.7 0-7.3-0.4-0.4-0.1-0.9-0.2-0.3 0-0.6 0-0.5-0.1-1-0.2c-0.8-0.1-1.5-0.3-2.2-0.3q-0.3 0-0.5-0.1c-0.6-0.2-1.1-0.4-1.7-0.5q-4.3-1.1-8.4-2.7-0.1-0.1-0.2-0.1c-3.9-1.6-7.6-3.7-11-6-0.7-0.5-1.7 0-1.7 0.8v6.7c0 0.7-0.5 1.2-1.1 1.2h-21c-0.6 0-1.2-0.5-1.2-1.2v-54.9q0-1.9 0.1-3.8c0 0 0-53 0-53q0.1 0 0.1-0.1v-31c0-0.6 0.4-1.1 1-1.1h21.3c0.5 0 1 0.5 1 1.1v39.5c0 0.8 1 1.3 1.7 0.8 5.8-4 12.4-7 19.6-8.7q0 0 0 0 1.9-0.5 3.7-0.8 0.2 0 0.4 0 0.6-0.1 1.1-0.2 0.3-0.1 0.6-0.1 0.5-0.1 0.9-0.1 3.6-0.5 7.3-0.5 0 0 0 0 0 0 0 0 0 0 0 0c18.1 0 33.2 6.1 46.1 18.5 10.6 10.3 18.2 23.3 25.5 35.8 14 23.9 23.5 38.6 43.7 38.6 20.2 0 29.8-14.7 43.8-38.6 7.3-12.6 14.8-25.5 25.5-35.8 12.6-12.2 27.4-18.2 44.9-18.5 0.6 0 1.1 0.5 1.1 1.1v20.8c0 0.6-0.5 1.1-1 1.1-8.6 0.2-15.6 2.4-21.6 6.2-0.3 0.2-0.5 0.5-0.5 0.9v61c0 0.7 0.7 1.3 1.4 1.3h20.5c0.7 0 1.2 0.6 1.2 1.3zm-195.2-35.7c0-17.1-12.5-31.7-29.6-34.5q-2.8-0.5-5.8-0.5-2.9 0-5.8 0.5l-0.5 0.1c-16 2.8-27.9 16.1-29 31.9 0 0 0 4.8 0 4.9q0 0 0 0c1.1 16 13.2 29.4 29.5 32q2.9 0.5 5.8 0.5 2.9 0 5.8-0.5h0.5c16.9-3 29.1-17.6 29.1-34.4z"/>
						</g>
						<g id="Layer">
							<path id="Layer" fill-rule="evenodd" class="s1" d="m536.3 228.2h-54.7c-0.3 0-0.7-0.2-0.9-0.5-3.2-4.8-18.8-31.2-22.8-37.2-0.2-0.3-0.2-0.8 0-1.1 8.6-16.1 24.6-27.8 43.9-30.2q3.5-0.4 7.1-0.4 3.6 0 7.2 0.4c19.3 2.4 35.3 14.1 43.9 30.2 0.2 0.3 0.2 0.8 0 1.1-4 6-19.6 32.4-22.8 37.2-0.2 0.3-0.6 0.5-0.9 0.5zm-59.8-24.5c-0.3 0.7 0.2 1.5 1 1.5h62.9c0.8 0 1.3-0.8 1-1.5-4.4-10.9-14.1-19.3-26.2-21.4l-0.5-0.1q-2.9-0.5-5.7-0.5-3 0-5.8 0.5c-12.3 2.1-22.3 10.5-26.7 21.5z"/>
						</g>
					</g>
				</g>
				<g id="Layer">
					<path id="Layer" class="s1" d="m601.1 128.9c0-0.6-0.5-1.1-1.2-1.1h-21.3c-0.7 0-1.2 0.5-1.2 1.1v38.9c0 0.8 1 1.3 1.7 0.8 6-5 13-9.2 21.3-11.9 0.4-0.1 0.7-0.5 0.7-1z"/>
				</g>
			</g>
		</g>
		<g id="Layer">
			<g id="Layer">
				<g id="Layer">
					<path id="Layer" class="s1" d="m229.7 171.7c0 27.3-10.6 52.9-29.9 72.2-19.3 19.2-44.9 29.8-72.2 29.8-27.3 0-52.9-10.6-72.2-29.8-19.3-19.3-29.9-44.9-29.9-72.2 0-27.3 10.6-53 29.9-72.2 19.3-19.3 44.9-29.9 72.2-29.9 22.5 0 43.8 7.2 61.4 20.5l18.5-18.5c-21.9-17.4-49.7-27.9-79.9-27.9-70.7 0-127.9 57.2-127.9 128 0 70.7 57.2 127.9 127.9 127.9 70.7 0 128-57.2 128-127.9 0-30.5-10.6-58.4-28.4-80.3l-18.4 18.4c13.6 17.7 20.9 39.2 20.9 61.9z"/>
				</g>
				<g id="Layer">
					<path id="Layer" class="s1" d="m262.8 77.8l36.2-36.3-35.8-6-6-35.9-36.4 36.3 3.3 19.1-16.7 16.7c7.3 5.8 14 12.4 19.8 19.7l16.8-16.7z"/>
				</g>
			</g>
			<g id="Layer">
				<g id="Layer">
					<path id="Layer" class="s1" d="m171.9 146.7c4.2 7.4 6.6 15.9 6.6 25 0 28-22.8 50.9-50.9 50.9-28.1 0-50.9-22.9-50.9-50.9 0-28.1 22.8-50.9 50.9-50.9 8.9 0 17.2 2.2 24.5 6.2l18.8-18.8c-12.3-8.4-27.2-13.3-43.3-13.3-42.4 0-76.8 34.3-76.8 76.8 0 42.4 34.4 76.7 76.8 76.7 42.5 0 76.8-34.3 76.8-76.7 0-16.3-5.1-31.4-13.7-43.8z"/>
				</g>
				<g id="Layer">
					<path id="Layer" class="s1" d="m152.1 127l-35 35 0.2 0.1q0 0 0 0c-5.5 5.5-5.5 14.2 0 19.7 5.4 5.4 14.2 5.4 19.6 0q0.4-0.4 0.7-0.8l34.3-34.3c-4.6-8.3-11.5-15.1-19.8-19.7z"/>
				</g>
				<g id="Layer">
					<path id="Layer" class="s1" d="m190.7 127.9l18.1-18.1q-4.1-5.4-9-10.3-5.1-5.1-10.8-9.4l-18.1 18.1c7.7 5.3 14.5 12 19.8 19.7z"/>
				</g>
			</g>
		</g>
	</g>
</svg>